<?xml version="1.0" encoding="utf-8"?>
<!-- Svg Vector Icons : http://www.onlinewebfonts.com/icon -->
<!DOCTYPE svg PUBLIC "-//W3C//DTD SVG 1.1//EN" "http://www.w3.org/Graphics/SVG/1.1/DTD/svg11.dtd">
<svg version="1.1" xmlns="http://www.w3.org/2000/svg" xmlns:xlink="http://www.w3.org/1999/xlink" x="0px" y="0px" viewBox="0 0 1000 1000" enable-background="new 0 0 1000 1000" xml:space="preserve">
<metadata> Svg Vector Icons : http://www.onlinewebfonts.com/icon </metadata>
<g><path d="M721.1,377.5H591.6l-91.6,135l-91.6-135H278.9l155.2,232L259,867.5h251v-87.6h-58l48-71.8l106.6,159.4H741l-175.1-258L721.1,377.5z M874.6,200.9L737.9,64.1C708.1,34.4,649.3,10,607.2,10H147.8c-42.1,0-76.6,34.5-76.6,76.6v826.9c0,42.1,34.5,76.6,76.6,76.6h704.4c42.1,0,76.6-34.5,76.6-76.6V331.6C928.7,289.5,904.4,230.6,874.6,200.9z M831.3,244.2c3,3,6,6.7,8.9,10.8H683.7V98.6c4.2,2.9,7.8,5.9,10.8,8.9L831.3,244.2z M867.5,913.4c0,8.3-7,15.3-15.3,15.3H147.8c-8.3,0-15.3-7-15.3-15.3V86.6c0-8.3,7-15.3,15.3-15.3h459.4c4.6,0,9.8,0.6,15.3,1.6v243.4h243.4c1,5.5,1.6,10.7,1.6,15.3V913.4z"/></g>
</svg>